<svg width="23.222656" height="23.221802" viewBox="0 0 23.2227 23.2218" fill="none" xmlns="http://www.w3.org/2000/svg" xmlns:xlink="http://www.w3.org/1999/xlink">
	<desc>
			Created with Pixso.
	</desc>
	<defs/>
	<path id="Rectangle 68" d="M22.9258 1.7112L1.71191 22.9248L0.297852 21.5106L21.5117 0.296982L22.9258 1.7112ZM21.5117 0.325256L21.5117 0.296982C21.9072 -0.098999 22.5293 -0.098999 22.9258 0.296982C23.3213 0.692963 23.3213 1.31522 22.9258 1.7112L22.8975 1.7112L21.5117 0.325256ZM1.71191 22.8965L1.71191 22.9248C1.31641 23.3208 0.693359 23.3208 0.297852 22.9248C-0.0986328 22.5288 -0.0986328 21.9066 0.297852 21.5106L0.326172 21.5106L1.71191 22.8965Z" fill="#FFFFFF" fill-opacity="1.000000" fill-rule="evenodd"/>
	<path id="Rectangle 69" d="M21.5117 22.9248L0.297852 1.7112L1.71191 0.296982L22.9258 21.5106L21.5117 22.9248ZM22.8975 21.5106L22.9258 21.5106C23.3213 21.9066 23.3213 22.5288 22.9258 22.9248C22.5293 23.3208 21.9072 23.3208 21.5117 22.9248L21.5117 22.8965L22.8975 21.5106ZM0.326172 1.7112L0.297852 1.7112C-0.0986328 1.31522 -0.0986328 0.692963 0.297852 0.296982C0.693359 -0.098999 1.31641 -0.098999 1.71191 0.296982L1.71191 0.325272L0.326172 1.7112Z" fill="#FFFFFF" fill-opacity="1.000000" fill-rule="evenodd"/>
</svg>
