<svg width="51.000000" height="51.000000" viewBox="0 0 51 51" fill="none" xmlns="http://www.w3.org/2000/svg" xmlns:xlink="http://www.w3.org/1999/xlink">
	<desc>
			Created with Pixso.
	</desc>
	<defs/>
	<path id="Vector" d="M36.4888 51L14.5112 51C6.52832 51 0 44.5038 0 36.4886L0 14.5114C0 6.52852 6.52832 0 14.5112 0L36.4888 0C44.5039 0 51 6.52852 51 14.5114L51 36.4886C51 44.5038 44.5039 51 36.4888 51ZM14.5112 4.36312C8.91992 4.36312 4.36328 8.92015 4.36328 14.5114L4.36328 36.4886C4.36328 42.0798 8.91992 46.6369 14.5112 46.6369L36.4888 46.6369C42.0801 46.6369 46.6367 42.0798 46.6367 36.4886L46.6367 14.5114C46.6367 8.92015 42.0801 4.36312 36.4888 4.36312L14.5112 4.36312Z" fill="#FFFFFF" fill-opacity="1.000000" fill-rule="nonzero"/>
	<path id="Vector" d="M25.5 38.5571C18.2925 38.5571 12.4429 32.7073 12.4429 25.5C12.4429 18.2928 18.2925 12.443 25.5 12.443C32.707 12.443 38.5571 18.2928 38.5571 25.5C38.5571 32.7073 32.707 38.5571 25.5 38.5571ZM25.5 16.8061C20.7168 16.8061 16.8062 20.7168 16.8062 25.5C16.8062 30.2833 20.7168 34.1939 25.5 34.1939C30.2832 34.1939 34.1938 30.2833 34.1938 25.5C34.1938 20.7168 30.2832 16.8061 25.5 16.8061Z" fill="#FFFFFF" fill-opacity="1.000000" fill-rule="nonzero"/>
	<path id="Vector" d="M42.2739 11.6997C42.2739 13.4449 40.8843 14.8347 39.1387 14.8347C37.3936 14.8347 36.0039 13.4449 36.0039 11.6997C36.0039 9.95443 37.3936 8.5647 39.1387 8.5647C40.8521 8.5647 42.2739 9.95443 42.2739 11.6997Z" fill="#FFFFFF" fill-opacity="1.000000" fill-rule="nonzero"/>
</svg>
