<svg width="64.986816" height="36.107117" viewBox="0 0 64.9868 36.1071" fill="none" xmlns="http://www.w3.org/2000/svg" xmlns:xlink="http://www.w3.org/1999/xlink">
	<desc>
			Created with Pixso.
	</desc>
	<defs/>
	<path id="Vector" d="M64.6367 32.5273C64.5327 32.376 64.481 32.2248 64.4287 32.1239C63.2866 30.1575 61.1582 27.7374 57.9912 24.8634L57.9395 24.813L57.8872 24.7626L57.8354 24.7122L57.7837 24.7122C56.3301 23.3508 55.4473 22.4937 55.0317 22.0399C54.3569 21.1827 54.1494 20.2752 54.5645 19.3676C54.8242 18.7122 55.8628 17.25 57.6279 15.0819C58.5625 13.9222 59.2891 13.0147 59.8081 12.3088C63.7021 7.26678 65.4155 4.03989 64.896 2.62813L64.6885 2.32561C64.5327 2.12392 64.2212 1.92224 63.6504 1.77098C63.0791 1.61972 62.3521 1.56931 61.4697 1.67014L51.7612 1.72057C51.6055 1.67014 51.3979 1.67014 51.0864 1.72057C50.7749 1.77098 50.6191 1.8214 50.6191 1.8214L50.4634 1.92224L50.3076 2.02309C50.2036 2.0735 50.0479 2.22476 49.9443 2.37602C49.7886 2.52728 49.6846 2.72896 49.6328 2.93065C48.5942 5.60291 47.3481 8.02309 45.9985 10.3424C45.168 11.7038 44.3892 12.8634 43.7139 13.8718C43.0391 14.8802 42.416 15.5861 41.9487 16.0903C41.4814 16.5441 41.0664 16.9474 40.6509 17.1996C40.2876 17.5021 39.9761 17.6029 39.7686 17.5525C39.5605 17.5021 39.353 17.4517 39.1973 17.4012C38.8857 17.1996 38.626 16.9474 38.4185 16.5945C38.2109 16.2416 38.1069 15.8382 38.0034 15.334C37.9512 14.8298 37.8994 14.376 37.8994 14.0231C37.8994 13.6701 37.8994 13.1155 37.8994 12.4601C37.8994 11.8046 37.9512 11.3004 37.9512 11.0987C37.9512 10.2416 37.9512 9.38443 38.0034 8.37602C38.0552 7.41805 38.0552 6.61131 38.1069 6.0567C38.1069 5.50208 38.1592 4.89703 38.1592 4.24156C38.1592 3.58611 38.1069 3.13232 38.0552 2.72896C38.0034 2.37602 37.8477 2.02309 37.6919 1.67014C37.5361 1.3172 37.2764 1.06509 37.0166 0.863419C36.7051 0.661743 36.3418 0.510483 35.8745 0.409637C34.6807 0.157532 33.1748 0.00627136 31.3062 0.00627136C27.0488 -0.0441437 24.4009 0.207947 23.1548 0.813004C22.6875 1.06509 22.2725 1.36761 21.8569 1.8214C21.4419 2.32561 21.3896 2.5777 21.7012 2.62813C23.0513 2.8298 24.0376 3.28358 24.5566 4.03989L24.7642 4.44325C24.9199 4.74577 25.0757 5.24997 25.2314 5.95586C25.3872 6.66174 25.4912 7.46846 25.543 8.37602C25.647 9.98947 25.647 11.3508 25.543 12.4601C25.4395 13.6197 25.3354 14.4769 25.2314 15.1323C25.1279 15.7878 24.9722 16.292 24.7642 16.6954C24.5566 17.0987 24.4009 17.3508 24.3491 17.4012C24.2974 17.5021 24.2451 17.5525 24.1934 17.5525C23.8818 17.6533 23.5703 17.7038 23.2588 17.7038C22.9473 17.7038 22.584 17.5525 22.1167 17.25C21.6494 16.9474 21.1821 16.5441 20.7148 15.9895C20.2476 15.4348 19.6768 14.729 19.0537 13.7206C18.4307 12.7626 17.8076 11.6029 17.1846 10.292L16.6655 9.334C16.3018 8.72896 15.8867 7.8214 15.2637 6.66174C14.6924 5.50208 14.1733 4.34241 13.7061 3.28358C13.5503 2.8298 13.2388 2.47687 12.8755 2.22476L12.7197 2.12392C12.6157 2.02309 12.4082 1.92224 12.2007 1.8214C11.9409 1.72057 11.6812 1.67014 11.4219 1.61972L2.18066 1.67014C1.24609 1.67014 0.571289 1.87183 0.259766 2.27518L0.104004 2.47687C0.0517578 2.5777 0 2.77939 0 2.98106C0 3.23317 0.0517578 3.53569 0.20752 3.88863C1.55762 6.96426 3.01123 9.93904 4.62061 12.813C6.22998 15.6869 7.58008 18.0063 8.77393 19.771C9.96826 21.5357 11.1621 23.1996 12.3564 24.7122C13.5503 26.2752 14.3809 27.2836 14.7964 27.687C15.2114 28.1407 15.5229 28.4433 15.731 28.6954L16.5615 29.5021C17.0806 30.0063 17.9111 30.6617 18.9497 31.3676C19.9878 32.1239 21.1821 32.8298 22.4282 33.5357C23.7261 34.2416 25.1797 34.8466 26.8931 35.3004C28.6064 35.7542 30.2158 35.9559 31.8252 35.855L35.7188 35.855C36.4976 35.8046 37.1206 35.5525 37.5361 35.1491L37.6919 34.9979C37.7954 34.8466 37.8477 34.6449 37.9512 34.3928C38.0552 34.1407 38.0552 33.8382 38.0552 33.4853C38.0552 32.5273 38.1069 31.6701 38.2627 30.9138C38.4185 30.1575 38.626 29.6029 38.834 29.1996C39.0415 28.7962 39.3013 28.4937 39.5605 28.2416C39.8203 27.9895 40.0278 27.8382 40.1318 27.7878C40.2358 27.7374 40.3394 27.687 40.3916 27.687C40.9106 27.5357 41.5854 27.687 42.3125 28.1911C43.0391 28.6954 43.7139 29.3508 44.3892 30.1071C45.0122 30.8634 45.7905 31.7206 46.7251 32.6785C47.6079 33.6365 48.4385 34.3424 49.1133 34.7962L49.7886 35.1996C50.2554 35.4517 50.8267 35.7038 51.5537 35.9054C52.2803 36.1071 52.9033 36.1575 53.4224 36.0567L62.0928 35.9054C62.9233 35.9054 63.5981 35.7542 64.0654 35.5021C64.5327 35.25 64.8442 34.9474 64.896 34.5945C65 34.2416 65 33.8886 64.896 33.4853C64.7925 32.9811 64.7402 32.6785 64.6367 32.5273Z" fill="#FFFFFF" fill-opacity="1.000000" fill-rule="nonzero"/>
</svg>
