<svg width="51.000000" height="51.000000" viewBox="0 0 51 51" fill="none" xmlns="http://www.w3.org/2000/svg" xmlns:xlink="http://www.w3.org/1999/xlink">
	<desc>
			Created with Pixso.
	</desc>
	<defs/>
	<path id="Vector" d="M36.4888 51L14.5112 51C6.52832 51 0 44.5039 0 36.4888L0 14.5112C0 6.52832 6.52832 0 14.5112 0L36.4888 0C44.5039 0 51 6.52832 51 14.5112L51 36.4888C51 44.5039 44.5039 51 36.4888 51ZM14.5112 4.36328C8.91992 4.36328 4.36328 8.91992 4.36328 14.5112L4.36328 36.4888C4.36328 42.0801 8.91992 46.6367 14.5112 46.6367L36.4888 46.6367C42.0801 46.6367 46.6367 42.0801 46.6367 36.4888L46.6367 14.5112C46.6367 8.91992 42.0801 4.36328 36.4888 4.36328L14.5112 4.36328Z" fill="#000000" fill-opacity="1.000000" fill-rule="nonzero"/>
	<path id="Vector" d="M25.5 38.5571C18.2925 38.5571 12.4429 32.707 12.4429 25.5C12.4429 18.2925 18.2925 12.4429 25.5 12.4429C32.707 12.4429 38.5571 18.2925 38.5571 25.5C38.5571 32.707 32.707 38.5571 25.5 38.5571ZM25.5 16.8062C20.7168 16.8062 16.8062 20.7168 16.8062 25.5C16.8062 30.2832 20.7168 34.1938 25.5 34.1938C30.2832 34.1938 34.1938 30.2832 34.1938 25.5C34.1938 20.7168 30.2832 16.8062 25.5 16.8062Z" fill="#000000" fill-opacity="1.000000" fill-rule="nonzero"/>
	<path id="Vector" d="M42.2739 11.6992C42.2739 13.4448 40.8843 14.8345 39.1387 14.8345C37.3936 14.8345 36.0039 13.4448 36.0039 11.6992C36.0039 9.9541 37.3936 8.56445 39.1387 8.56445C40.8521 8.56445 42.2739 9.9541 42.2739 11.6992Z" fill="#000000" fill-opacity="1.000000" fill-rule="nonzero"/>
</svg>
