<svg width="64.986816" height="36.106934" viewBox="0 0 64.9868 36.1069" fill="none" xmlns="http://www.w3.org/2000/svg" xmlns:xlink="http://www.w3.org/1999/xlink">
	<desc>
			Created with Pixso.
	</desc>
	<defs/>
	<path id="vk" d="M64.6367 32.5273C64.5327 32.376 64.481 32.2246 64.4287 32.124C63.2866 30.1577 61.1582 27.7373 57.9912 24.8633L57.9395 24.813L57.8872 24.7627L57.8354 24.7119L57.7837 24.7119C56.3301 23.3506 55.4473 22.4937 55.0317 22.04C54.3569 21.1826 54.1494 20.2754 54.5645 19.3677C54.8242 18.7119 55.8628 17.25 57.6279 15.082C58.5625 13.9224 59.2891 13.0146 59.8081 12.3086C63.7021 7.2666 65.4155 4.04004 64.896 2.62793L64.6885 2.32568C64.5327 2.12402 64.2212 1.92236 63.6504 1.771C63.0791 1.61963 62.3521 1.56934 61.4697 1.66992L51.7612 1.7207C51.6055 1.66992 51.3979 1.66992 51.0864 1.7207C50.7749 1.771 50.6191 1.82129 50.6191 1.82129L50.4634 1.92236L50.3076 2.02295C50.2036 2.07373 50.0479 2.22461 49.9443 2.37598C49.7886 2.52734 49.6846 2.729 49.6328 2.93066C48.5942 5.60303 47.3481 8.02295 45.9985 10.3423C45.168 11.7036 44.3892 12.8633 43.7139 13.8716C43.0391 14.8804 42.416 15.5859 41.9487 16.0903C41.4814 16.5439 41.0664 16.9473 40.6509 17.1997C40.2876 17.502 39.9761 17.603 39.7686 17.5527C39.5605 17.502 39.353 17.4517 39.1973 17.4014C38.8857 17.1997 38.626 16.9473 38.4185 16.5947C38.2109 16.2417 38.1069 15.8384 38.0034 15.334C37.9512 14.8296 37.8994 14.376 37.8994 14.0229C37.8994 13.6699 37.8994 13.1157 37.8994 12.46C37.8994 11.8047 37.9512 11.3003 37.9512 11.0986C37.9512 10.2417 37.9512 9.38428 38.0034 8.37598C38.0552 7.41797 38.0552 6.61133 38.1069 6.05664C38.1069 5.50195 38.1592 4.89697 38.1592 4.2417C38.1592 3.58594 38.1069 3.13232 38.0552 2.729C38.0034 2.37598 37.8477 2.02295 37.6919 1.66992C37.5361 1.31738 37.2764 1.06494 37.0166 0.863281C36.7051 0.661621 36.3418 0.510254 35.8745 0.409668C34.6807 0.157715 33.1748 0.00634766 31.3062 0.00634766C27.0488 -0.0439453 24.4009 0.208008 23.1548 0.812988C22.6875 1.06494 22.2725 1.36768 21.8569 1.82129C21.4419 2.32568 21.3896 2.57764 21.7012 2.62793C23.0513 2.82959 24.0376 3.28369 24.5566 4.04004L24.7642 4.44336C24.9199 4.74561 25.0757 5.25 25.2314 5.95605C25.3872 6.66162 25.4912 7.46826 25.543 8.37598C25.647 9.98926 25.647 11.3506 25.543 12.46C25.4395 13.6196 25.3354 14.4771 25.2314 15.1323C25.1279 15.7876 24.9722 16.292 24.7642 16.6953C24.5566 17.0986 24.4009 17.3506 24.3491 17.4014C24.2974 17.502 24.2451 17.5527 24.1934 17.5527C23.8818 17.6533 23.5703 17.7036 23.2588 17.7036C22.9473 17.7036 22.584 17.5527 22.1167 17.25C21.6494 16.9473 21.1821 16.5439 20.7148 15.9893C20.2476 15.4351 19.6768 14.729 19.0537 13.7207C18.4307 12.7627 17.8076 11.603 17.1846 10.292L16.6655 9.33398C16.3018 8.729 15.8867 7.82129 15.2637 6.66162C14.6924 5.50195 14.1733 4.34229 13.7061 3.28369C13.5503 2.82959 13.2388 2.47705 12.8755 2.22461L12.7197 2.12402C12.6157 2.02295 12.4082 1.92236 12.2007 1.82129C11.9409 1.7207 11.6812 1.66992 11.4219 1.61963L2.18066 1.66992C1.24609 1.66992 0.571289 1.87158 0.259766 2.27539L0.104004 2.47705C0.0517578 2.57764 0 2.7793 0 2.98096C0 3.2334 0.0517578 3.53564 0.20752 3.88867C1.55762 6.96436 3.01123 9.93896 4.62061 12.813C6.22998 15.687 7.58008 18.0063 8.77393 19.771C9.96826 21.5356 11.1621 23.1997 12.3564 24.7119C13.5503 26.2754 14.3809 27.2837 14.7964 27.687C15.2114 28.1406 15.5229 28.4434 15.731 28.6953L16.5615 29.502C17.0806 30.0063 17.9111 30.6616 18.9497 31.3677C19.9878 32.124 21.1821 32.8296 22.4282 33.5356C23.7261 34.2417 25.1797 34.8467 26.8931 35.3003C28.6064 35.7544 30.2158 35.9561 31.8252 35.855L35.7188 35.855C36.4976 35.8047 37.1206 35.5527 37.5361 35.1489L37.6919 34.998C37.7954 34.8467 37.8477 34.645 37.9512 34.3931C38.0552 34.1406 38.0552 33.8384 38.0552 33.4854C38.0552 32.5273 38.1069 31.6699 38.2627 30.9141C38.4185 30.1577 38.626 29.603 38.834 29.1997C39.0415 28.7964 39.3013 28.4937 39.5605 28.2417C39.8203 27.9893 40.0278 27.8384 40.1318 27.7876C40.2358 27.7373 40.3394 27.687 40.3916 27.687C40.9106 27.5356 41.5854 27.687 42.3125 28.1909C43.0391 28.6953 43.7139 29.3506 44.3892 30.1069C45.0122 30.8633 45.7905 31.7207 46.7251 32.6787C47.6079 33.6367 48.4385 34.3423 49.1133 34.7964L49.7886 35.1997C50.2554 35.4517 50.8267 35.7036 51.5537 35.9053C52.2803 36.1069 52.9033 36.1577 53.4224 36.0566L62.0928 35.9053C62.9233 35.9053 63.5981 35.7544 64.0654 35.502C64.5327 35.25 64.8442 34.9473 64.896 34.5947C65 34.2417 65 33.8887 64.896 33.4854C64.7925 32.981 64.7402 32.6787 64.6367 32.5273Z" fill="#000000" fill-opacity="1.000000" fill-rule="nonzero"/>
</svg>
